<?xml version="1.0" encoding="UTF-8" standalone="no"?>
<!-- Created with Inkscape (http://www.inkscape.org/) -->

<svg
   xmlns:dc="http://purl.org/dc/elements/1.1/"
   xmlns:cc="http://creativecommons.org/ns#"
   xmlns:rdf="http://www.w3.org/1999/02/22-rdf-syntax-ns#"
   xmlns:svg="http://www.w3.org/2000/svg"
   xmlns="http://www.w3.org/2000/svg"
   xmlns:sodipodi="http://sodipodi.sourceforge.net/DTD/sodipodi-0.dtd"
   xmlns:inkscape="http://www.inkscape.org/namespaces/inkscape"
   width="210mm"
   height="297mm"
   viewBox="0 0 744.09448819 1052.3622047"
   id="svg2"
   version="1.1"
   inkscape:version="0.91 r13725"
   sodipodi:docname="basic_topo.svg">
  <defs
     id="defs4" />
  <sodipodi:namedview
     id="base"
     pagecolor="#ffffff"
     bordercolor="#666666"
     borderopacity="1.0"
     inkscape:pageopacity="0.0"
     inkscape:pageshadow="2"
     inkscape:zoom="1.4142136"
     inkscape:cx="588.26251"
     inkscape:cy="923.6934"
     inkscape:document-units="px"
     inkscape:current-layer="layer1"
     showgrid="false"
     inkscape:window-width="1855"
     inkscape:window-height="1056"
     inkscape:window-x="65"
     inkscape:window-y="24"
     inkscape:window-maximized="1" />
  <metadata
     id="metadata7">
    <rdf:RDF>
      <cc:Work
         rdf:about="">
        <dc:format>image/svg+xml</dc:format>
        <dc:type
           rdf:resource="http://purl.org/dc/dcmitype/StillImage" />
        <dc:title></dc:title>
      </cc:Work>
    </rdf:RDF>
  </metadata>
  <g
     inkscape:label="Layer 1"
     inkscape:groupmode="layer"
     id="layer1">
    <rect
       style="fill:none;fill-rule:evenodd;stroke:#000000;stroke-width:1;stroke-linecap:butt;stroke-linejoin:miter;stroke-miterlimit:4;stroke-dasharray:none;stroke-opacity:1"
       id="rect4140"
       width="59.926285"
       height="45.558308"
       x="56.039051"
       y="94.304718"
       ry="0"
       rx="0" />
    <rect
       rx="0"
       ry="0"
       y="88.542007"
       x="321.71951"
       height="65.465858"
       width="86.011726"
       id="rect4184"
       style="fill:none;fill-rule:evenodd;stroke:#000000;stroke-width:0.99999994;stroke-linecap:butt;stroke-linejoin:miter;stroke-miterlimit:4;stroke-dasharray:none;stroke-opacity:1" />
    <rect
       style="fill:none;fill-rule:evenodd;stroke:#000000;stroke-width:1;stroke-linecap:butt;stroke-linejoin:miter;stroke-miterlimit:4;stroke-dasharray:none;stroke-opacity:1"
       id="rect4186"
       width="59.926285"
       height="45.558308"
       x="624.58929"
       y="51.960075"
       ry="0"
       rx="0" />
    <rect
       style="fill:none;fill-rule:evenodd;stroke:#000000;stroke-width:1;stroke-linecap:butt;stroke-linejoin:miter;stroke-miterlimit:4;stroke-dasharray:none;stroke-opacity:1"
       id="rect4190"
       width="59.926285"
       height="45.558308"
       x="333.55185"
       y="325.10464"
       ry="0"
       rx="0" />
    <rect
       rx="0"
       ry="0"
       y="148.87843"
       x="624.58929"
       height="45.558308"
       width="59.926285"
       id="rect4829"
       style="fill:none;fill-rule:evenodd;stroke:#000000;stroke-width:1;stroke-linecap:butt;stroke-linejoin:miter;stroke-miterlimit:4;stroke-dasharray:none;stroke-opacity:1" />
    <text
       xml:space="preserve"
       style="font-style:normal;font-variant:normal;font-weight:normal;font-stretch:normal;font-size:10.18713284px;line-height:125%;font-family:Courier;-inkscape-font-specification:'Courier, Normal';text-align:center;letter-spacing:0px;word-spacing:0px;writing-mode:lr-tb;text-anchor:middle;fill:#000000;fill-opacity:1;stroke:none;stroke-width:1px;stroke-linecap:butt;stroke-linejoin:miter;stroke-opacity:1"
       x="365.35291"
       y="163.24721"
       id="text4831"
       sodipodi:linespacing="125%"><tspan
         sodipodi:role="line"
         id="tspan4937"
         x="365.35291"
         y="163.24721">Adapter3</tspan><tspan
         sodipodi:role="line"
         id="tspan4939"
         x="365.35291"
         y="175.98112">192.168.51.51</tspan></text>
    <text
       sodipodi:linespacing="125%"
       id="text4835"
       y="320.70352"
       x="325.3208"
       style="font-style:normal;font-variant:normal;font-weight:normal;font-stretch:normal;font-size:10.18713284px;line-height:125%;font-family:Courier;-inkscape-font-specification:'Courier, Normal';text-align:start;letter-spacing:0px;word-spacing:0px;writing-mode:lr-tb;text-anchor:start;fill:#000000;fill-opacity:1;stroke:none;stroke-width:1px;stroke-linecap:butt;stroke-linejoin:miter;stroke-opacity:1"
       xml:space="preserve"><tspan
         sodipodi:role="line"
         id="tspan5126"
         x="325.3208"
         y="320.70352">192.168.51.14</tspan></text>
    <text
       xml:space="preserve"
       style="font-style:normal;font-variant:normal;font-weight:normal;font-stretch:normal;font-size:10.18713284px;line-height:125%;font-family:Courier;-inkscape-font-specification:'Courier, Normal';text-align:center;letter-spacing:0px;word-spacing:0px;writing-mode:lr-tb;text-anchor:middle;fill:#000000;fill-opacity:1;stroke:none;stroke-width:1px;stroke-linecap:butt;stroke-linejoin:miter;stroke-opacity:1"
       x="-120.74938"
       y="417.1575"
       id="text4831-0"
       sodipodi:linespacing="125%"
       transform="matrix(0,-1,1,0,0,0)"><tspan
         sodipodi:role="line"
         id="tspan5118"
         x="-120.74938"
         y="417.1575">Adapter2</tspan><tspan
         sodipodi:role="line"
         id="tspan5120"
         x="-120.74938"
         y="429.89142">192.168.50.50</tspan></text>
    <text
       xml:space="preserve"
       style="font-style:normal;font-variant:normal;font-weight:normal;font-stretch:normal;font-size:10.18713284px;line-height:125%;font-family:Courier;-inkscape-font-specification:'Courier, Normal';text-align:center;letter-spacing:0px;word-spacing:0px;writing-mode:lr-tb;text-anchor:middle;fill:#000000;fill-opacity:1;stroke:none;stroke-width:1px;stroke-linecap:butt;stroke-linejoin:miter;stroke-opacity:1"
       x="-119.81276"
       y="305.51364"
       id="text4831-0-0"
       sodipodi:linespacing="125%"
       transform="matrix(0,-1,1,0,0,0)"><tspan
         sodipodi:role="line"
         id="tspan4966"
         x="-119.81276"
         y="305.51364">Adapter1</tspan><tspan
         sodipodi:role="line"
         id="tspan4968"
         x="-119.81276"
         y="318.24756">192.168.70.10</tspan></text>
    <text
       sodipodi:linespacing="125%"
       id="text4835-8"
       y="152.70976"
       x="46.82354"
       style="font-style:normal;font-variant:normal;font-weight:normal;font-stretch:normal;font-size:10.18713284px;line-height:125%;font-family:Courier;-inkscape-font-specification:'Courier, Normal';text-align:start;letter-spacing:0px;word-spacing:0px;writing-mode:lr-tb;text-anchor:start;fill:#000000;fill-opacity:1;stroke:none;stroke-width:1px;stroke-linecap:butt;stroke-linejoin:miter;stroke-opacity:1"
       xml:space="preserve"><tspan
         sodipodi:role="line"
         id="tspan5116"
         x="46.82354"
         y="152.70976">192.168.70.*</tspan></text>
    <text
       sodipodi:linespacing="125%"
       id="text4835-0"
       y="107.22182"
       x="619.04095"
       style="font-style:normal;font-variant:normal;font-weight:normal;font-stretch:normal;font-size:10.18713284px;line-height:125%;font-family:Courier;-inkscape-font-specification:'Courier, Normal';text-align:start;letter-spacing:0px;word-spacing:0px;writing-mode:lr-tb;text-anchor:start;fill:#000000;fill-opacity:1;stroke:none;stroke-width:1px;stroke-linecap:butt;stroke-linejoin:miter;stroke-opacity:1"
       xml:space="preserve"><tspan
         sodipodi:role="line"
         id="tspan5124"
         x="619.04095"
         y="107.22182">192.168.50.31</tspan></text>
    <text
       sodipodi:linespacing="125%"
       id="text4835-07"
       y="203.6163"
       x="653.09338"
       style="font-style:normal;font-variant:normal;font-weight:normal;font-stretch:normal;font-size:10.18713284px;line-height:125%;font-family:Courier;-inkscape-font-specification:'Courier, Normal';text-align:center;letter-spacing:0px;word-spacing:0px;writing-mode:lr-tb;text-anchor:middle;fill:#000000;fill-opacity:1;stroke:none;stroke-width:1px;stroke-linecap:butt;stroke-linejoin:miter;stroke-opacity:1"
       xml:space="preserve"><tspan
         sodipodi:role="line"
         id="tspan5047"
         x="653.09338"
         y="203.6163">192.168.50.32</tspan></text>
    <text
       xml:space="preserve"
       style="font-style:normal;font-variant:normal;font-weight:normal;font-stretch:normal;font-size:14.81764793px;line-height:125%;font-family:Courier;-inkscape-font-specification:'Courier, Normal';text-align:center;letter-spacing:0px;word-spacing:0px;writing-mode:lr-tb;text-anchor:middle;fill:#000000;fill-opacity:1;stroke:none;stroke-width:1px;stroke-linecap:butt;stroke-linejoin:miter;stroke-opacity:1"
       x="85.527557"
       y="112.43056"
       id="text5049"
       sodipodi:linespacing="125%"><tspan
         sodipodi:role="line"
         id="tspan5051"
         x="85.527557"
         y="112.43056">Host/</tspan><tspan
         sodipodi:role="line"
         x="85.527557"
         y="130.95262"
         id="tspan5053">Client</tspan></text>
    <text
       xml:space="preserve"
       style="font-style:normal;font-variant:normal;font-weight:normal;font-stretch:normal;font-size:14.81764793px;line-height:125%;font-family:Courier;-inkscape-font-specification:'Courier, Normal';text-align:center;letter-spacing:0px;word-spacing:0px;writing-mode:lr-tb;text-anchor:middle;fill:#000000;fill-opacity:1;stroke:none;stroke-width:1px;stroke-linecap:butt;stroke-linejoin:miter;stroke-opacity:1"
       x="364.28738"
       y="125.53271"
       id="text5049-4"
       sodipodi:linespacing="125%"><tspan
         sodipodi:role="line"
         x="364.28738"
         y="125.53271"
         id="tspan5053-9">FW</tspan></text>
    <text
       xml:space="preserve"
       style="font-style:normal;font-variant:normal;font-weight:normal;font-stretch:normal;font-size:14.81764793px;line-height:125%;font-family:Courier;-inkscape-font-specification:'Courier, Normal';text-align:center;letter-spacing:0px;word-spacing:0px;writing-mode:lr-tb;text-anchor:middle;fill:#000000;fill-opacity:1;stroke:none;stroke-width:1px;stroke-linecap:butt;stroke-linejoin:miter;stroke-opacity:1"
       x="363.02264"
       y="340.09229"
       id="text5049-2"
       sodipodi:linespacing="125%"><tspan
         sodipodi:role="line"
         x="363.02264"
         y="340.09229"
         id="tspan5053-97">Web</tspan><tspan
         sodipodi:role="line"
         x="363.02264"
         y="358.61435"
         id="tspan5110">Server</tspan></text>
    <text
       xml:space="preserve"
       style="font-style:normal;font-variant:normal;font-weight:normal;font-stretch:normal;font-size:14.81764793px;line-height:125%;font-family:Courier;-inkscape-font-specification:'Courier, Normal';text-align:center;letter-spacing:0px;word-spacing:0px;writing-mode:lr-tb;text-anchor:middle;fill:#000000;fill-opacity:1;stroke:none;stroke-width:1px;stroke-linecap:butt;stroke-linejoin:miter;stroke-opacity:1"
       x="654.58398"
       y="176.43924"
       id="text5049-1"
       sodipodi:linespacing="125%"><tspan
         sodipodi:role="line"
         x="654.58398"
         y="176.43924"
         id="tspan5053-2">Backup</tspan></text>
    <text
       xml:space="preserve"
       style="font-style:normal;font-variant:normal;font-weight:normal;font-stretch:normal;font-size:14.81764793px;line-height:125%;font-family:Courier;-inkscape-font-specification:'Courier, Normal';text-align:center;letter-spacing:0px;word-spacing:0px;writing-mode:lr-tb;text-anchor:middle;fill:#000000;fill-opacity:1;stroke:none;stroke-width:1px;stroke-linecap:butt;stroke-linejoin:miter;stroke-opacity:1"
       x="653.01233"
       y="77.425362"
       id="text5049-26"
       sodipodi:linespacing="125%"><tspan
         sodipodi:role="line"
         x="653.01233"
         y="77.425362"
         id="tspan5053-1">CoreCA</tspan></text>
    <path
       style="fill:#dadada;fill-opacity:1;fill-rule:evenodd;stroke:none;stroke-width:1px;stroke-linecap:butt;stroke-linejoin:miter;stroke-opacity:1"
       d="m 176.98104,104.57231 c -4.90551,0.61318 -2.82521,0.18242 -6.2866,1.04776 -0.69851,0.17463 -1.38276,0.42206 -2.09553,0.52389 -0.51862,0.0741 -1.05794,-0.10275 -1.57165,0 -1.14176,0.22835 -1.49026,1.28936 -2.61941,1.57165 -0.33882,0.0847 -0.77504,-0.21818 -1.04776,0 -0.68181,0.54544 -1.01268,1.42477 -1.57165,2.09553 -0.3162,0.37944 -0.75141,0.65263 -1.04777,1.04777 -0.4625,0.61667 -0.83645,1.98549 -1.04776,2.61941 -0.52389,1.57165 -1.01445,3.15479 -1.57165,4.71494 -0.31629,0.88561 -0.81969,1.7071 -1.04776,2.61942 -0.12706,0.50824 0.0861,1.05489 0,1.57165 -0.0908,0.5447 -0.38996,1.03592 -0.52389,1.57165 -0.10319,0.41277 0,1.75379 0,2.09553 l 0,4.19106 0,3.1433 0,1.57165 c 0,0.34926 -0.11044,0.71643 0,1.04776 0.0781,0.23429 0.44579,0.2896 0.52389,0.52389 1.03967,3.11902 -2.48098,-2.14981 1.04776,3.14329 0.27398,0.41097 0.69851,0.69852 1.04776,1.04777 1.80058,1.80058 0.28883,0.50972 3.1433,2.09553 0.89011,0.49451 1.66247,1.22367 2.61941,1.57165 0.99827,0.36301 2.11279,0.26626 3.1433,0.52388 1.07146,0.26787 2.0603,0.83117 3.1433,1.04777 0.68494,0.13699 1.40404,-0.0988 2.09553,0 0.54667,0.0781 1.02369,0.45539 1.57165,0.52388 0.8664,0.10831 1.74627,0 2.61941,0 l 3.66718,0 7.33436,0 2.09554,0 1.04776,0 c -1.39702,0 -2.80097,-0.13901 -4.19106,0 -0.38854,0.0388 -0.66894,0.42918 -1.04776,0.52389 -0.33883,0.0847 -0.70895,-0.0847 -1.04778,0 -0.37882,0.0947 -0.69851,0.34925 -1.04776,0.52388 -1.41685,0.70843 -3.15513,1.3763 -4.19107,2.61942 -0.35352,0.42423 -0.34925,1.04776 -0.52387,1.57164 -1.04381,3.13142 -0.14564,-0.11532 -0.52389,3.66719 -1.54884,9.29303 0.31722,-2.96555 -0.52388,6.28659 -0.16124,1.77355 -0.75499,3.4822 -1.04777,5.23883 -0.10908,0.65448 0,1.43076 0,2.09553 0,0.17463 -0.16567,0.46866 0,0.52389 0.497,0.16566 2.09768,-1.09518 2.61941,-1.04777 1.40212,0.12746 1.73899,1.47134 3.1433,1.57165 1.91603,0.13686 3.84181,0 5.76272,0 1.04776,0 2.10194,-0.11571 3.1433,0 0.54884,0.061 1.02498,0.44578 1.57165,0.52388 1.03723,0.14817 2.09553,0 3.14329,0 l 6.2866,0 5.76271,0 c 1.57165,0 3.14975,0.14229 4.71495,0 0.38887,-0.0353 0.69851,-0.34925 1.04776,-0.52388 0.34926,-0.17463 0.72288,-0.30729 1.04777,-0.52388 0.20549,-0.13699 0.34926,-0.34926 0.52388,-0.52389 0.17463,-0.17463 0.41344,-0.30299 0.52389,-0.52389 0.0781,-0.15618 0,-0.34925 0,-0.52387 l 0,-1.04777 0,-2.09553 c 0,-0.69851 0.0866,-1.40242 0,-2.09553 -0.0893,-0.71445 -0.40552,-1.38532 -0.52389,-2.09554 -0.10096,-0.60577 0,-1.99019 0,-2.61941 0,-0.34926 -0.15619,-0.73539 0,-1.04776 0.0781,-0.1562 0.34926,0 0.52389,0 l 0.52388,0 c 0.34925,0 0.73538,-0.1562 1.04777,0 0.44177,0.22088 0.69851,0.6985 1.04776,1.04776 l 1.04777,1.04776 0.52388,0.52389 c 0.17463,0.17462 0.41344,0.30299 0.52388,0.52388 0.0781,0.15619 -0.12348,0.40041 0,0.52388 0.27612,0.27611 0.77166,0.24777 1.04777,0.52389 0.12348,0.12348 0,0.34925 0,0.52388 0.17463,0.17463 0.3184,0.38689 0.52388,0.52388 2.28808,1.52539 -0.17268,-0.23219 2.09554,0.52389 0.23428,0.0781 0.34925,0.34925 0.52387,0.52388 0.34926,0.17463 0.67232,0.41661 1.04777,0.52388 0.85618,0.24462 1.76325,0.27927 2.61942,0.52388 3.25972,0.93135 -1.75234,0.17342 2.61942,1.04777 0.34247,0.0684 0.6985,0 1.04776,0 l 2.09553,0 c 1.34439,0 2.36529,0.12706 3.66718,-0.52388 0.44178,-0.22089 0.69851,-0.69851 1.04777,-1.04777 2.13274,-2.13274 1.57803,-1.53157 4.71494,-5.23883 2.25989,-2.67077 1.75656,-2.74268 4.71495,-4.71494 0.6498,-0.4332 1.41285,-0.66851 2.09553,-1.04777 0.89011,-0.4945 1.72931,-1.07715 2.61942,-1.57165 0.68268,-0.37927 1.44573,-0.61457 2.09553,-1.04776 0.93036,-0.62025 1.72489,-1.42464 2.61941,-2.09554 0.50371,-0.37777 1.03175,-0.72383 1.57165,-1.04776 0.33484,-0.20091 0.83117,-0.19899 1.04776,-0.52389 0.19374,-0.29059 -0.0847,-0.70893 0,-1.04776 0.68008,-2.7203 0.52389,0.55926 0.52389,-2.09553 0,-0.34926 0.0685,-0.70529 0,-1.04777 -0.23184,-1.15923 -1.03918,-2.70874 -1.57165,-3.66718 -0.4945,-0.89011 -0.85164,-1.89941 -1.57165,-2.61942 -1.69359,-1.69358 -4.12887,-2.00292 -6.28659,-2.61941 -2.6067,-0.74477 -0.5484,-0.52389 -3.66718,-0.52389 l -1.04777,0 c 1.22239,0 2.44901,-0.1015 3.66718,0 0.88736,0.0739 1.73443,0.42556 2.61942,0.52389 1.39555,0.15506 2.42281,0.0983 3.66718,-0.52389 0.045,-0.0224 1.86044,-1.10147 2.09553,-1.57164 0.1385,-0.27702 -0.0638,-1.8403 0,-2.09553 0.0947,-0.37882 0.42917,-0.66895 0.52388,-1.04777 0.0847,-0.33883 -0.11044,-0.71644 0,-1.04777 0.0781,-0.23428 0.47546,-0.28172 0.52389,-0.52388 0.13699,-0.68495 0,-1.39702 0,-2.09553 l 0,-4.71495 0,-5.23882 0,-1.57165 c 0,-0.34926 0.0959,-0.71195 0,-1.04777 -0.25835,-0.90422 -0.67733,-1.75505 -1.04777,-2.61941 -0.15382,-0.35891 -0.28959,-0.73539 -0.52388,-1.04777 -0.29636,-0.39514 -0.69851,-0.69851 -1.04777,-1.04777 -0.17463,-0.17462 -0.3184,-0.38689 -0.52388,-0.52388 -0.77084,-0.51389 -1.76746,-0.76378 -2.61942,-1.04777 -3.76827,-1.25609 0.93753,0.26787 -3.66718,-1.04776 -6.40857,-1.83102 4.71495,1.22239 -3.66718,-1.57165 -0.33133,-0.11044 -0.69851,0 -1.04776,0 l -2.61942,0 c -0.34925,0 -0.71643,-0.11044 -1.04776,0 -0.23429,0.0781 -0.34926,0.34925 -0.52389,0.52388 l -2.09553,2.09553 c -0.17463,0.17463 -0.30299,0.41345 -0.52388,0.52389 -0.15619,0.0781 -0.4004,-0.12348 -0.52389,0 -0.12348,0.12348 -0.16567,0.5791 0,0.52388 1.85873,-0.61957 1.52375,-1.09465 2.09554,-2.61941 0.33019,-0.88053 0.67732,-1.75506 1.04776,-2.61942 0.83329,-1.944329 2.05509,-3.693508 2.61941,-5.762711 0.27949,-1.024788 0.26626,-2.112789 0.52389,-3.143297 2.18027,-8.721097 -0.0723,1.264768 2.09553,-5.238831 0.0939,-0.281639 0,-1.651983 0,-2.095527 0,-0.235934 0.0797,-1.412218 0,-1.571649 -0.29209,-0.584185 -2.98467,-1.785304 -3.66718,-2.095534 -1.56572,-0.711691 -3.17664,-1.326379 -4.71495,-2.095534 -0.56316,-0.281579 -0.9821,-0.826684 -1.57164,-1.047763 -0.83374,-0.312652 -1.78569,-0.211233 -2.61942,-0.523885 -0.58954,-0.22108 -1.03772,-0.714063 -1.57165,-1.047764 -0.86347,-0.539673 -1.7293,-1.077146 -2.61941,-1.571648 -1.22093,-0.678293 -4.89281,-2.382167 -5.76271,-2.619419 -0.6739,-0.183791 -1.41059,0.136989 -2.09554,0 -0.24216,-0.04845 -0.28959,-0.445782 -0.52388,-0.523878 -0.33133,-0.110444 -0.69851,0 -1.04777,0 -1.11606,0 -2.19226,-0.236949 -3.14329,0.523878 -0.57854,0.462829 -1.04777,1.04777 -1.57165,1.571648 l -1.57165,1.571649 c -1.2224,1.222396 -2.56048,2.339143 -3.66718,3.667182 -0.24998,0.299976 -0.30728,0.722872 -0.52389,1.047771 -0.13699,0.205484 -0.38689,0.318394 -0.52388,0.523878 -0.2166,0.324899 -0.28959,0.735385 -0.52388,1.047771 -0.29636,0.395135 -0.82688,0.605982 -1.04777,1.047763 -0.15619,0.312386 0.0847,0.708936 0,1.047763 -0.0947,0.378821 -0.4473,0.664876 -0.52388,1.047771 -0.24543,1.227101 0.24474,3.49123 0,4.714946 -0.64736,0.647361 -0.52389,0.276919 -0.52389,1.047763 0,0.174626 0.0424,0.693296 0,0.523886 -0.21596,-0.863847 -0.30791,-1.755573 -0.52387,-2.61942 -0.24475,-0.979002 -0.98692,-2.790074 -1.57165,-3.667175 -0.13699,-0.205484 -0.34926,-0.349259 -0.52389,-0.523885 -0.17462,-0.174626 -0.303,-0.413442 -0.52388,-0.523886 -0.1562,-0.0781 -0.37859,0.09687 -0.52388,0 -0.41097,-0.273978 -0.69851,-0.698511 -1.04777,-1.047763 -0.4092,-0.409197 -1.11959,-1.27028 -1.57165,-1.571649 -0.6498,-0.433201 -1.44574,-0.614569 -2.09553,-1.047763 -0.20549,-0.136989 -0.28959,-0.445789 -0.52388,-0.523885 -0.33134,-0.110444 -0.69851,0 -1.04777,0 l -2.61942,0 -6.81048,0 c -0.87313,0 -1.76323,-0.17124 -2.61941,0 -0.3829,0.07658 -0.68521,0.378865 -1.04777,0.523885 -0.51272,0.205084 -1.04776,0.349252 -1.57165,0.523878 -4.80708,1.602366 2.6761,-1.076102 -3.66717,2.095534 -0.31239,0.156193 -0.73539,-0.156193 -1.04777,0 0,0.541963 0.12348,0.724087 -0.52388,1.047763 -0.72263,0.361314 -0.4686,-0.634447 -1.04777,0.523886 -0.0781,0.156192 0.0424,0.354467 0,0.523885 -0.13393,0.535732 -0.41559,1.030152 -0.52388,1.571649 -0.13699,0.684945 0,1.397022 0,2.095526 l 0,4.714953 0,5.76271 c 0,0.738498 -0.12622,2.512218 0,3.143298 0.1412,0.70602 0.34925,1.39702 0.52388,2.09553 z"
       id="path5130"
       inkscape:connector-curvature="0"
       sodipodi:nodetypes="csssscssssccssccsssssssssssscccccscssscsssscsscsscscscscscsssssssscccccscsscsscsssssssssscssscsssscsscscssssccssscsssssssssssccsssssscssssssscsssssssssssscscsssscssssscssssscsscsscssc" />
    <text
       sodipodi:linespacing="125%"
       id="text4835-8-1"
       y="127.56339"
       x="161.32022"
       style="font-style:normal;font-variant:normal;font-weight:normal;font-stretch:normal;font-size:10.18713284px;line-height:125%;font-family:Courier;-inkscape-font-specification:'Courier, Normal';text-align:start;letter-spacing:0px;word-spacing:0px;writing-mode:lr-tb;text-anchor:start;fill:#000000;fill-opacity:1;stroke:none;stroke-width:1px;stroke-linecap:butt;stroke-linejoin:miter;stroke-opacity:1"
       xml:space="preserve"><tspan
         sodipodi:role="line"
         id="tspan5150"
         x="161.32022"
         y="127.56339">192.168.70.0/24</tspan></text>
    <path
       style="fill:#dadada;fill-opacity:1;fill-rule:evenodd;stroke:none;stroke-width:1px;stroke-linecap:butt;stroke-linejoin:miter;stroke-opacity:1"
       d="m 330.52399,229.24807 c -4.90551,0.61319 -2.82521,0.18242 -6.2866,1.04776 -0.69851,0.17463 -1.38276,0.42206 -2.09553,0.52389 -0.51862,0.0741 -1.05794,-0.10275 -1.57165,0 -1.14176,0.22835 -1.49026,1.28936 -2.6194,1.57165 -0.33883,0.0847 -0.77505,-0.21818 -1.04777,0 -0.68181,0.54544 -1.01268,1.42477 -1.57165,2.09553 -0.3162,0.37944 -0.75141,0.65263 -1.04777,1.04777 -0.4625,0.61667 -0.83645,1.98549 -1.04776,2.61941 -0.52389,1.57165 -1.01445,3.15479 -1.57165,4.71494 -0.3163,0.88562 -0.8197,1.7071 -1.04777,2.61942 -0.12706,0.50824 0.0861,1.05489 0,1.57165 -0.0908,0.54471 -0.38996,1.03592 -0.52388,1.57165 -0.10319,0.41277 0,1.75379 0,2.09553 l 0,4.19106 0,3.1433 0,1.57165 c 0,0.34926 -0.11045,0.71643 0,1.04776 0.0781,0.23429 0.44578,0.2896 0.52388,0.52389 1.03968,3.11903 -2.48098,-2.14981 1.04777,3.1433 0.27398,0.41096 0.69851,0.69851 1.04776,1.04777 1.80059,1.80057 0.28883,0.50971 3.1433,2.09552 0.89011,0.49451 1.66248,1.22367 2.61941,1.57165 0.99827,0.36301 2.11279,0.26626 3.1433,0.52389 1.07147,0.26786 2.06031,0.83116 3.1433,1.04776 0.68494,0.13699 1.40404,-0.0988 2.09553,0 0.54667,0.0781 1.02369,0.45539 1.57165,0.52389 0.8664,0.1083 1.74628,0 2.61941,0 l 3.66719,0 7.33435,0 2.09554,0 1.04776,0 c -1.39702,0 -2.80097,-0.13902 -4.19106,0 -0.38854,0.0388 -0.66894,0.42917 -1.04776,0.52388 -0.33883,0.0847 -0.70895,-0.0847 -1.04777,0 -0.37882,0.0947 -0.69852,0.34925 -1.04777,0.52388 -1.41685,0.70843 -3.15513,1.3763 -4.19107,2.61942 -0.35351,0.42423 -0.34925,1.04776 -0.52387,1.57165 -1.04381,3.13141 -0.14564,-0.11533 -0.52389,3.66718 -1.54884,9.29304 0.31723,-2.96554 -0.52388,6.28659 -0.16123,1.77355 -0.75499,3.4822 -1.04777,5.23883 -0.10908,0.65448 0,1.43076 0,2.09553 0,0.17463 -0.16567,0.46866 0,0.52389 0.497,0.16567 2.09769,-1.09518 2.61941,-1.04777 1.40212,0.12747 1.73899,1.47135 3.1433,1.57165 1.91603,0.13686 3.84181,0 5.76272,0 1.04776,0 2.10194,-0.11571 3.1433,0 0.54884,0.061 1.02498,0.44578 1.57164,0.52388 1.03724,0.14818 2.09554,0 3.1433,0 l 6.2866,0 5.76271,0 c 1.57165,0 3.14975,0.14229 4.71495,0 0.38887,-0.0353 0.69851,-0.34925 1.04776,-0.52388 0.34926,-0.17463 0.72287,-0.30729 1.04777,-0.52388 0.20549,-0.13699 0.34925,-0.34926 0.52388,-0.52389 0.17463,-0.17462 0.41344,-0.30299 0.52389,-0.52388 0.0781,-0.15619 0,-0.34925 0,-0.52388 l 0,-1.04777 0,-2.09553 c 0,-0.69851 0.0866,-1.40241 0,-2.09553 -0.0893,-0.71445 -0.40552,-1.38532 -0.52389,-2.09554 -0.10096,-0.60577 0,-1.99019 0,-2.61941 0,-0.34926 -0.15619,-0.73538 0,-1.04776 0.0781,-0.15619 0.34926,0 0.52389,0 l 0.52388,0 c 0.34925,0 0.73538,-0.15619 1.04776,0 0.44178,0.22089 0.69852,0.6985 1.04777,1.04776 l 1.04777,1.04777 0.52388,0.52388 c 0.17463,0.17463 0.41344,0.30299 0.52388,0.52389 0.0781,0.15618 -0.12348,0.4004 0,0.52387 0.27611,0.27612 0.77166,0.24778 1.04777,0.52389 0.12348,0.12348 0,0.34925 0,0.52388 0.17463,0.17463 0.3184,0.38689 0.52388,0.52388 2.28808,1.52539 -0.17268,-0.23218 2.09553,0.52389 0.23429,0.0781 0.34926,0.34925 0.52388,0.52388 0.34926,0.17463 0.67232,0.41661 1.04777,0.52388 0.85617,0.24463 1.76324,0.27927 2.61942,0.52389 3.25971,0.93135 -1.75234,0.17341 2.61941,1.04776 0.34248,0.0685 0.69851,0 1.04777,0 l 2.09553,0 c 1.34439,0 2.36529,0.12706 3.66718,-0.52388 0.44178,-0.22088 0.69851,-0.69851 1.04777,-1.04777 2.13274,-2.13274 1.57803,-1.53157 4.71494,-5.23882 2.25989,-2.67078 1.75655,-2.74269 4.71495,-4.71495 0.6498,-0.4332 1.41285,-0.6685 2.09553,-1.04777 0.89011,-0.4945 1.72931,-1.07715 2.61942,-1.57165 0.68267,-0.37926 1.44573,-0.61457 2.09553,-1.04776 0.93036,-0.62025 1.72488,-1.42464 2.61941,-2.09554 0.5037,-0.37777 1.03175,-0.72382 1.57165,-1.04776 0.33483,-0.2009 0.83117,-0.19898 1.04776,-0.52388 0.19374,-0.2906 -0.0847,-0.70894 0,-1.04777 0.68008,-2.72029 0.52389,0.55927 0.52389,-2.09553 0,-0.34926 0.0685,-0.70529 0,-1.04776 -0.23185,-1.15924 -1.03918,-2.70874 -1.57165,-3.66719 -0.4945,-0.89011 -0.85164,-1.8994 -1.57165,-2.61942 -1.69359,-1.69358 -4.12887,-2.00291 -6.28659,-2.61941 -2.6067,-0.74477 -0.5484,-0.52388 -3.66719,-0.52388 l -1.04776,0 c 1.22239,0 2.44901,-0.10151 3.66718,0 0.88736,0.0739 1.73443,0.42555 2.61942,0.52388 1.39555,0.15506 2.42281,0.0983 3.66718,-0.52388 0.045,-0.0225 1.86044,-1.10148 2.09552,-1.57165 0.13851,-0.27702 -0.0638,-1.8403 0,-2.09553 0.0947,-0.37882 0.42918,-0.66895 0.52389,-1.04777 0.0847,-0.33883 -0.11044,-0.71643 0,-1.04776 0.0781,-0.23429 0.47545,-0.28172 0.52389,-0.52389 0.13698,-0.68494 0,-1.39702 0,-2.09552 l 0,-4.71496 0,-5.23882 0,-1.57165 c 0,-0.34926 0.0959,-0.71195 0,-1.04777 -0.25835,-0.90422 -0.67733,-1.75505 -1.04778,-2.61941 -0.15381,-0.35891 -0.28958,-0.73539 -0.52387,-1.04777 -0.29636,-0.39514 -0.69851,-0.69851 -1.04777,-1.04777 -0.17463,-0.17462 -0.3184,-0.38689 -0.52388,-0.52388 -0.77085,-0.51389 -1.76747,-0.76378 -2.61942,-1.04777 -3.76827,-1.25609 0.93753,0.26787 -3.66718,-1.04776 -6.40857,-1.83102 4.71495,1.22239 -3.66718,-1.57165 -0.33133,-0.11044 -0.69851,0 -1.04776,0 l -2.61942,0 c -0.34925,0 -0.71644,-0.11044 -1.04777,0 -0.23428,0.0781 -0.34925,0.34925 -0.52388,0.52388 l -2.09553,2.09553 c -0.17463,0.17463 -0.303,0.41345 -0.52388,0.52389 -0.1562,0.0781 -0.4004,-0.12348 -0.52389,0 -0.12348,0.12348 -0.16567,0.5791 0,0.52388 1.85873,-0.61957 1.52375,-1.09465 2.09554,-2.61941 0.33019,-0.88053 0.67732,-1.75506 1.04776,-2.61942 0.83328,-1.94433 2.05509,-3.69351 2.61941,-5.76271 0.27949,-1.02479 0.26626,-2.11279 0.52389,-3.1433 2.18027,-8.7211 -0.0723,1.26477 2.09553,-5.23883 0.0939,-0.28164 0,-1.65198 0,-2.09553 0,-0.23593 0.0797,-1.41222 0,-1.57165 -0.29209,-0.58418 -2.98467,-1.7853 -3.66718,-2.09553 -1.56572,-0.71169 -3.17664,-1.32638 -4.71495,-2.09553 -0.56316,-0.28158 -0.9821,-0.82669 -1.57165,-1.04777 -0.83373,-0.31265 -1.78568,-0.21123 -2.61941,-0.52388 -0.58954,-0.22108 -1.03772,-0.71407 -1.57165,-1.04777 -0.86347,-0.53967 -1.72931,-1.07714 -2.61942,-1.57164 -1.22092,-0.6783 -4.89281,-2.38217 -5.76271,-2.61942 -0.67389,-0.18379 -1.41058,0.13698 -2.09553,0 -0.24216,-0.0485 -0.2896,-0.44579 -0.52388,-0.52388 -0.33133,-0.11045 -0.69852,0 -1.04777,0 -1.11606,0 -2.19226,-0.23695 -3.1433,0.52388 -0.57853,0.46282 -1.04776,1.04777 -1.57164,1.57164 l -1.57165,1.57165 c -1.2224,1.2224 -2.56048,2.33915 -3.66719,3.66719 -0.24998,0.29997 -0.30728,0.72287 -0.52388,1.04777 -0.13699,0.20548 -0.38689,0.31839 -0.52388,0.52387 -0.2166,0.3249 -0.28959,0.73539 -0.52388,1.04777 -0.29636,0.39514 -0.82688,0.60599 -1.04777,1.04777 -0.15619,0.31238 0.0847,0.70893 0,1.04776 -0.0947,0.37882 -0.4473,0.66488 -0.52388,1.04777 -0.24543,1.2271 0.24474,3.49123 0,4.71495 -0.64736,0.64736 -0.52389,0.27692 -0.52389,1.04776 0,0.17463 0.0424,0.6933 0,0.52389 -0.21596,-0.86385 -0.30792,-1.75558 -0.52388,-2.61942 -0.24475,-0.979 -0.98691,-2.79008 -1.57164,-3.66718 -0.13699,-0.20548 -0.34926,-0.34926 -0.52389,-0.52388 -0.17463,-0.17463 -0.303,-0.41345 -0.52389,-0.52389 -0.15619,-0.0781 -0.37858,0.0969 -0.52387,0 -0.41097,-0.27398 -0.69851,-0.69851 -1.04777,-1.04776 -0.4092,-0.4092 -1.1196,-1.27028 -1.57165,-1.57165 -0.6498,-0.4332 -1.44574,-0.61457 -2.09554,-1.04776 -0.20548,-0.13699 -0.28959,-0.44579 -0.52387,-0.52389 -0.33134,-0.11044 -0.69852,0 -1.04778,0 l -2.61941,0 -6.81048,0 c -0.87313,0 -1.76323,-0.17124 -2.61941,0 -0.38289,0.0766 -0.68521,0.37887 -1.04777,0.52389 -0.51272,0.20508 -1.04776,0.34925 -1.57165,0.52387 -4.80708,1.60237 2.6761,-1.0761 -3.66717,2.09554 -0.31239,0.15619 -0.73539,-0.15619 -1.04777,0 0,0.54196 0.12348,0.72408 -0.52388,1.04776 -0.72263,0.36132 -0.4686,-0.63445 -1.04777,0.52389 -0.0781,0.15619 0.0424,0.35446 0,0.52388 -0.13393,0.53573 -0.41559,1.03015 -0.52388,1.57165 -0.13699,0.68495 0,1.39702 0,2.09553 l 0,4.71495 0,5.76271 c 0,0.7385 -0.12622,2.51222 0,3.1433 0.1412,0.70602 0.34925,1.39702 0.52388,2.09553 z"
       id="path5130-0"
       inkscape:connector-curvature="0"
       sodipodi:nodetypes="csssscssssccssccsssssssssssscccccscssscsssscsscsscscscscscsssssssscccccscsscsscsssssssssscssscsssscsscscssssccssscsssssssssssccsssssscssssssscsssssssssssscscsssscssssscssssscsscsscssc" />
    <text
       sodipodi:linespacing="125%"
       id="text4835-8-1-7"
       y="252.23915"
       x="314.86316"
       style="font-style:normal;font-variant:normal;font-weight:normal;font-stretch:normal;font-size:10.18713284px;line-height:125%;font-family:Courier;-inkscape-font-specification:'Courier, Normal';text-align:start;letter-spacing:0px;word-spacing:0px;writing-mode:lr-tb;text-anchor:start;fill:#000000;fill-opacity:1;stroke:none;stroke-width:1px;stroke-linecap:butt;stroke-linejoin:miter;stroke-opacity:1"
       xml:space="preserve"><tspan
         sodipodi:role="line"
         id="tspan5150-0"
         x="314.86316"
         y="252.23915">192.168.70.0/24</tspan></text>
    <path
       style="fill:#dadada;fill-opacity:1;fill-rule:evenodd;stroke:none;stroke-width:1px;stroke-linecap:butt;stroke-linejoin:miter;stroke-opacity:1"
       d="m 488.52603,106.65946 c -4.90551,0.61318 -2.82521,0.18242 -6.2866,1.04776 -0.69851,0.17463 -1.38276,0.42206 -2.09553,0.52389 -0.51862,0.0741 -1.05794,-0.10275 -1.57165,0 -1.14176,0.22834 -1.49026,1.28935 -2.61941,1.57165 -0.33882,0.0847 -0.77504,-0.21819 -1.04776,0 -0.68181,0.54544 -1.01268,1.42476 -1.57165,2.09553 -0.3162,0.37943 -0.75142,0.65263 -1.04777,1.04776 -0.4625,0.61668 -0.83645,1.98549 -1.04776,2.61941 -0.52389,1.57165 -1.01446,3.1548 -1.57165,4.71495 -0.31629,0.88561 -0.81969,1.70709 -1.04776,2.61942 -0.12707,0.50824 0.0861,1.05489 0,1.57165 -0.0908,0.5447 -0.38996,1.03591 -0.52389,1.57164 -0.10319,0.41277 0,1.7538 0,2.09554 l 0,4.19106 0,3.1433 0,1.57164 c 0,0.34926 -0.11044,0.71644 0,1.04777 0.0781,0.23429 0.44579,0.28959 0.52389,0.52388 1.03967,3.11903 -2.48098,-2.14981 1.04776,3.1433 0.27398,0.41097 0.69851,0.69851 1.04776,1.04777 1.80058,1.80058 0.28883,0.50971 3.1433,2.09553 0.89011,0.49451 1.66247,1.22367 2.61941,1.57165 0.99827,0.36301 2.11279,0.26626 3.1433,0.52388 1.07146,0.26787 2.0603,0.83117 3.1433,1.04777 0.68494,0.13698 1.40404,-0.0988 2.09553,0 0.54667,0.0781 1.02369,0.45539 1.57165,0.52388 0.86639,0.1083 1.74627,0 2.61941,0 l 3.66718,0 7.33436,0 2.09554,0 1.04776,0 c -1.39702,0 -2.80097,-0.13901 -4.19106,0 -0.38854,0.0388 -0.66894,0.42918 -1.04777,0.52389 -0.33882,0.0847 -0.70894,-0.0847 -1.04777,0 -0.37882,0.0947 -0.69851,0.34925 -1.04776,0.52387 -1.41686,0.70844 -3.15514,1.3763 -4.19107,2.61942 -0.35352,0.42423 -0.34925,1.04777 -0.52388,1.57165 -1.0438,3.13142 -0.14563,-0.11532 -0.52388,3.66718 -1.54884,9.29304 0.31722,-2.96554 -0.52389,6.2866 -0.16123,1.77355 -0.75498,3.4822 -1.04776,5.23882 -0.10908,0.65448 0,1.43077 0,2.09554 0,0.17462 -0.16567,0.46866 0,0.52388 0.497,0.16567 2.09768,-1.09518 2.61941,-1.04776 1.40212,0.12746 1.73899,1.47134 3.1433,1.57165 1.91603,0.13685 3.84181,0 5.76272,0 1.04776,0 2.10194,-0.11571 3.14329,0 0.54885,0.061 1.02499,0.44578 1.57165,0.52388 1.03724,0.14817 2.09554,0 3.1433,0 l 6.28659,0 5.76272,0 c 1.57165,0 3.14975,0.14229 4.71495,0 0.38887,-0.0353 0.69851,-0.34926 1.04776,-0.52388 0.34926,-0.17464 0.72287,-0.30729 1.04776,-0.52389 0.20549,-0.13699 0.34926,-0.34926 0.52389,-0.52388 0.17462,-0.17463 0.41344,-0.30299 0.52388,-0.52389 0.0781,-0.15618 0,-0.34925 0,-0.52388 l 0,-1.04777 0,-2.09552 c 0,-0.69851 0.0866,-1.40242 0,-2.09554 -0.0893,-0.71445 -0.40551,-1.38531 -0.52388,-2.09553 -0.10096,-0.60578 0,-1.9902 0,-2.61941 0,-0.34926 -0.15619,-0.73539 0,-1.04777 0.0781,-0.15619 0.34926,0 0.52388,0 l 0.52389,0 c 0.34925,0 0.73538,-0.15619 1.04776,0 0.44178,0.22089 0.69851,0.69851 1.04777,1.04777 l 1.04777,1.04776 0.52387,0.52389 c 0.17464,0.17462 0.41345,0.30299 0.52389,0.52388 0.0781,0.15619 -0.12348,0.4004 0,0.52388 0.27611,0.27611 0.77166,0.24777 1.04776,0.52388 0.12349,0.12349 0,0.34926 0,0.52389 0.17464,0.17463 0.3184,0.38689 0.52389,0.52388 2.28808,1.52539 -0.17269,-0.23219 2.09553,0.52388 0.23428,0.0781 0.34925,0.34925 0.52388,0.52389 0.34926,0.17462 0.67231,0.4166 1.04777,0.52388 0.85617,0.24462 1.76324,0.27926 2.61941,0.52388 3.25973,0.93135 -1.75233,0.17342 2.61943,1.04776 0.34247,0.0685 0.6985,0 1.04776,0 l 2.09554,0 c 1.34439,0 2.36529,0.12707 3.66717,-0.52387 0.44178,-0.22089 0.69851,-0.69851 1.04777,-1.04777 2.13274,-2.13275 1.57804,-1.53157 4.71495,-5.23883 2.25988,-2.67078 1.75655,-2.74269 4.71494,-4.71494 0.6498,-0.43321 1.41285,-0.66851 2.09554,-1.04777 0.8901,-0.49451 1.72931,-1.07715 2.61941,-1.57165 0.68268,-0.37927 1.44574,-0.61457 2.09553,-1.04777 0.93037,-0.62024 1.72489,-1.42463 2.61942,-2.09553 0.5037,-0.37778 1.03174,-0.72383 1.57165,-1.04776 0.33483,-0.20091 0.83116,-0.19899 1.04776,-0.52389 0.19373,-0.2906 -0.0847,-0.70893 0,-1.04776 0.68008,-2.7203 0.52388,0.55926 0.52388,-2.09554 0,-0.34926 0.0685,-0.70529 0,-1.04776 -0.23184,-1.15924 -1.03917,-2.70874 -1.57164,-3.66718 -0.49451,-0.89011 -0.85164,-1.89941 -1.57165,-2.61942 -1.69359,-1.69358 -4.12887,-2.00292 -6.2866,-2.61941 -2.6067,-0.74478 -0.54839,-0.52389 -3.66718,-0.52389 l -1.04776,0 c 1.22239,0 2.44901,-0.10151 3.66718,0 0.88735,0.0739 1.73443,0.42556 2.61941,0.52389 1.39556,0.15506 2.42281,0.0983 3.66718,-0.52389 0.045,-0.0225 1.86045,-1.10148 2.09553,-1.57165 0.13851,-0.27701 -0.0638,-1.8403 0,-2.09552 0.0947,-0.37882 0.42918,-0.66895 0.52389,-1.04777 0.0847,-0.33883 -0.11045,-0.71644 0,-1.04777 0.0781,-0.23429 0.47545,-0.28172 0.52388,-0.52388 0.13699,-0.68495 0,-1.39703 0,-2.09553 l 0,-4.71495 0,-5.23882 0,-1.57165 c 0,-0.34926 0.0959,-0.71195 0,-1.04777 -0.25835,-0.90422 -0.67733,-1.75505 -1.04777,-2.61942 -0.15381,-0.3589 -0.28959,-0.73538 -0.52388,-1.04776 -0.29635,-0.39514 -0.69851,-0.69851 -1.04777,-1.04777 -0.17462,-0.17463 -0.31839,-0.3869 -0.52388,-0.52389 -0.77084,-0.51389 -1.76746,-0.76377 -2.61942,-1.04776 -3.76826,-1.25609 0.93754,0.26787 -3.66717,-1.04776 -6.40857,-1.83103 4.71494,1.22239 -3.66718,-1.57165 -0.33133,-0.11044 -0.69852,0 -1.04777,0 l -2.61942,0 c -0.34925,0 -0.71643,-0.11044 -1.04776,0 -0.23429,0.0781 -0.34926,0.34925 -0.52389,0.52388 l -2.09553,2.09553 c -0.17463,0.17463 -0.30299,0.41344 -0.52388,0.52389 -0.15619,0.0781 -0.4004,-0.12349 -0.52388,0 -0.12349,0.12347 -0.16567,0.5791 0,0.52387 1.85872,-0.61957 1.52374,-1.09464 2.09553,-2.61941 0.3302,-0.88052 0.67732,-1.75505 1.04776,-2.61941 0.83329,-1.94433 2.05509,-3.69351 2.61942,-5.762713 0.27949,-1.024789 0.26626,-2.112789 0.52388,-3.143297 2.18028,-8.721097 -0.0723,1.264767 2.09554,-5.238832 0.0939,-0.281639 0,-1.651982 0,-2.095526 0,-0.235934 0.0797,-1.412218 0,-1.571649 -0.2921,-0.584185 -2.98468,-1.785304 -3.66719,-2.095534 -1.56572,-0.711691 -3.17663,-1.326379 -4.71494,-2.095534 -0.56316,-0.281579 -0.98211,-0.826684 -1.57165,-1.047763 -0.83374,-0.312652 -1.78568,-0.211233 -2.61941,-0.523885 -0.58955,-0.22108 -1.03773,-0.714063 -1.57165,-1.047764 -0.86348,-0.539673 -1.72931,-1.077146 -2.61942,-1.571648 -1.22093,-0.678293 -4.89282,-2.382167 -5.76272,-2.61942 -0.6739,-0.18379 -1.41059,0.13699 -2.09553,0 -0.24217,-0.04845 -0.2896,-0.445781 -0.52389,-0.523877 -0.33133,-0.110444 -0.69851,0 -1.04776,0 -1.11607,0 -2.19226,-0.236949 -3.1433,0.523877 -0.57853,0.46283 -1.04776,1.047771 -1.57165,1.571649 l -1.57164,1.571649 c -1.2224,1.222396 -2.56049,2.339143 -3.66719,3.667182 -0.24998,0.299976 -0.30728,0.722872 -0.52388,1.047771 -0.13699,0.205484 -0.38689,0.318394 -0.52388,0.523878 -0.2166,0.324899 -0.2896,0.735385 -0.52389,1.047771 -0.29635,0.395134 -0.82687,0.605982 -1.04776,1.047763 -0.15619,0.312386 0.0847,0.708935 0,1.047763 -0.0947,0.378821 -0.44731,0.664875 -0.52388,1.047771 -0.24543,1.227101 0.24474,3.49123 0,4.714946 -0.64737,0.647361 -0.52389,0.276919 -0.52389,1.047763 0,0.174626 0.0424,0.693296 0,0.523885 -0.21596,-0.863846 -0.30792,-1.755572 -0.52388,-2.619419 -0.24475,-0.979002 -0.98691,-2.790074 -1.57165,-3.667175 -0.13699,-0.205484 -0.34926,-0.349259 -0.52388,-0.523885 -0.17463,-0.174626 -0.303,-0.413442 -0.52389,-0.523886 -0.15619,-0.0781 -0.37858,0.09687 -0.52387,0 -0.41097,-0.273978 -0.69852,-0.698511 -1.04778,-1.047763 -0.40919,-0.409197 -1.11959,-1.27028 -1.57164,-1.571649 -0.6498,-0.433201 -1.44574,-0.614569 -2.09554,-1.047763 -0.20548,-0.136989 -0.28959,-0.445789 -0.52388,-0.523885 -0.33133,-0.110444 -0.69851,0 -1.04777,0 l -2.61941,0 -6.81048,0 c -0.87314,0 -1.76323,-0.17124 -2.61941,0 -0.3829,0.07658 -0.68521,0.378865 -1.04777,0.523885 -0.51272,0.205084 -1.04776,0.349252 -1.57165,0.523878 -4.80708,1.602366 2.6761,-1.076102 -3.66718,2.095534 -0.31238,0.156193 -0.73538,-0.156193 -1.04777,0 0,0.541963 0.12349,0.724087 -0.52387,1.047763 -0.72263,0.361314 -0.4686,-0.634447 -1.04777,0.523886 -0.0781,0.156192 0.0424,0.354467 0,0.523885 -0.13393,0.535732 -0.41559,1.030152 -0.52388,1.571649 -0.13699,0.684945 0,1.397022 0,2.095526 l 0,4.714953 0,5.76271 c 0,0.7385 -0.12622,2.51222 0,3.14329 0.1412,0.70603 0.34925,1.39703 0.52388,2.09554 z"
       id="path5130-1"
       inkscape:connector-curvature="0"
       sodipodi:nodetypes="csssscssssccssccsssssssssssscccccscssscsssscsscsscscscscscsssssssscccccscsscsscsssssssssscssscsssscsscscssssccssscsssssssssssccsssssscssssssscsssssssssssscscsssscssssscssssscsscsscssc" />
    <text
       sodipodi:linespacing="125%"
       id="text4835-8-1-76"
       y="129.65053"
       x="472.86523"
       style="font-style:normal;font-variant:normal;font-weight:normal;font-stretch:normal;font-size:10.18713284px;line-height:125%;font-family:Courier;-inkscape-font-specification:'Courier, Normal';text-align:start;letter-spacing:0px;word-spacing:0px;writing-mode:lr-tb;text-anchor:start;fill:#000000;fill-opacity:1;stroke:none;stroke-width:1px;stroke-linecap:butt;stroke-linejoin:miter;stroke-opacity:1"
       xml:space="preserve"><tspan
         sodipodi:role="line"
         id="tspan5150-6"
         x="472.86523"
         y="129.65053">192.168.70.0/24</tspan></text>
    <path
       style="fill:none;fill-rule:evenodd;stroke:#dadada;stroke-width:3;stroke-linecap:butt;stroke-linejoin:miter;stroke-miterlimit:4;stroke-dasharray:none;stroke-opacity:1"
       d="m 119.66267,118.81962 177.81178,0"
       id="path5185"
       inkscape:connector-curvature="0" />
    <path
       style="fill:none;fill-rule:evenodd;stroke:#dadada;stroke-width:3;stroke-linecap:butt;stroke-linejoin:miter;stroke-miterlimit:4;stroke-dasharray:none;stroke-opacity:1"
       d="m 435.3351,116.18762 107.61146,0"
       id="path5185-6"
       inkscape:connector-curvature="0" />
    <path
       style="fill:none;fill-rule:evenodd;stroke:#dadada;stroke-width:3;stroke-linecap:butt;stroke-linejoin:miter;stroke-miterlimit:4;stroke-dasharray:none;stroke-opacity:1"
       d="m 522.03362,123.64905 91.3793,-56.833504"
       id="path5185-6-5"
       inkscape:connector-curvature="0" />
    <path
       style="fill:none;fill-rule:evenodd;stroke:#dadada;stroke-width:3;stroke-linecap:butt;stroke-linejoin:miter;stroke-miterlimit:4;stroke-dasharray:none;stroke-opacity:1"
       d="m 515.3754,127.83623 95.26586,50.0464"
       id="path5185-6-6"
       inkscape:connector-curvature="0" />
    <path
       style="fill:none;fill-rule:evenodd;stroke:#dadada;stroke-width:3;stroke-linecap:butt;stroke-linejoin:miter;stroke-miterlimit:4;stroke-dasharray:none;stroke-opacity:1"
       d="m 359.40656,182.8527 0.67034,34.31239"
       id="path5185-6-9"
       inkscape:connector-curvature="0" />
    <path
       style="fill:none;fill-rule:evenodd;stroke:#dadada;stroke-width:3;stroke-linecap:butt;stroke-linejoin:miter;stroke-miterlimit:4;stroke-dasharray:none;stroke-opacity:1"
       d="m 362.54986,275.57998 0.67034,34.31239"
       id="path5185-6-9-6"
       inkscape:connector-curvature="0" />
  </g>
</svg>
